<svg width="20" height="20" viewBox="0 0 20 20" fill="none" xmlns="http://www.w3.org/2000/svg">
<path d="M25.0385 20V0H1.96159C1.46928 0 1.03236 0.0692309 1.03236 0.0692309L1.02621 2.76769L-3.17379 2.76154C-3.17379 2.76154 -3.23841 2.85231 -3.36918 3.07692C-3.90962 4.01222 -4.19355 5.07363 -4.19226 6.15385V20H25.0385Z" fill="#00247D"/>
<path d="M19.9999 0H17.5463L12.6315 5.02923V0H7.3684V3.95231L3.57473 0.0692309C2.94194 0.207383 2.33958 0.55753 1.81473 1.09231L6.76419 6.15385H4.93683L1.01789 2.14C0.902321 2.33744 0.795104 2.545 0.69684 2.76154L4.01367 6.15385H0V13.8462H4.08946L0 18.1015V20H3.50736L7.3684 16.0492V20H12.6315V14.9708L17.5452 20H19.9999V16.8785L17.0368 13.8462H19.9999V6.15385H17.0378L19.9999 3.12154V0Z" fill="#EEEEEE"/>
<path d="M11.5789 0H8.42103V7.69231H0V12.3077H8.42103V20H11.5789V12.3077H19.9999V7.69231H11.5789V0Z" fill="#CF1B2B"/>
<path d="M20 0H18.4621L12.6316 5.96769V6.15385H14.2853L20 0.304615V0ZM1.81481 1.09231C1.52011 1.39118 1.25238 1.74319 1.01797 2.14L4.9369 6.15385H6.76321L1.81481 1.09231ZM6.77584 13.8462L0.772705 20H2.59059L7.36847 15.1108V13.8462H6.77584ZM20 19.6954V17.8185L16.119 13.8462H14.2842L20 19.6954Z" fill="#CF1B2B"/>
</svg>
